<?xml version="1.0" encoding="utf-8"?>
<!-- Generator: Adobe Illustrator 19.0.0, SVG Export Plug-In . SVG Version: 6.00 Build 0)  -->
<svg version="1.1" id="Слой_1" xmlns="http://www.w3.org/2000/svg" xmlns:xlink="http://www.w3.org/1999/xlink" x="0px" y="0px"
	 viewBox="0 0 50 50" style="enable-background:new 0 0 50 50;" xml:space="preserve">
<style type="text/css">
	.st0{fill:#A42FDE;}
</style>
<g id="XgraWw.tif">
	<g id="XMLID_1_">
		<path id="XMLID_41_" class="st0" d="M47.1,11.6c-0.1,7.3-0.9,14.5-3.9,21.2c-3.5,7.8-9.4,13.4-17.2,17c-0.7,0.3-1.9,0.2-2.6-0.2
			c-10.4-5-16.8-13.1-19.2-24.4C2.9,18.6,2.6,11.8,3.2,5c0.1-0.9,0.5-1.3,1.3-1.6C11.9,0.8,19.4-0.2,27.1,0c6.2,0.2,12.1,1.3,18,3.3
			c1,0.3,1.6,0.8,1.6,1.9C46.8,7.3,47,9.5,47.1,11.6z M25,3C19,2.8,13.3,3.7,7.7,5.4c-1.2,0.4-1.7,1-1.8,2.3
			c-0.1,5.7,0.1,11.3,1.3,16.8c2.1,9.8,7.6,17.1,16.4,22c0.9,0.5,1.6,0.7,2.6,0.2c7.1-3.9,12.4-9.4,15.2-17.1
			c2.6-7.2,3-14.7,2.7-22.3c0-1.1-0.8-1.4-1.6-1.7C36.7,3.8,30.9,2.8,25,3z"/>
		<path id="XMLID_35_" class="st0" d="M42.9,11.4c-0.4,7.2-0.8,14.3-4.1,20.8C36,37.9,31.6,42.1,26,45.1c-0.6,0.3-1.6,0.2-2.2-0.1
			C15.2,40.4,10,33.2,8.3,23.6c-0.7-4.3-1-8.8-1.2-13.2c-0.2-3.5,0-3.5,3.3-4.4c10.1-2.6,20.2-2.5,30.3,0.2c1.4,0.4,2.2,1,2.1,2.5
			C42.8,9.7,42.9,10.6,42.9,11.4z M23.8,23.3c-1.1-1.2-2-2.4-3.1-3.4c-1.1-1.1-1.7-1-3,0.3c-1.4,1.5-1.5,2.1-0.4,3.2
			c1.7,1.7,3.4,3.4,5.2,5.1c1.3,1.3,1.7,1.3,3.1-0.1c3.1-3.1,6.2-6.2,9.3-9.3c1.5-1.5,1.5-2-0.1-3.6c-1.4-1.4-1.9-1.4-3.3,0.1
			C29,18,26.6,20.5,23.8,23.3z"/>
	</g>
</g>
</svg>
