<?xml version="1.0" standalone="no"?>
<!DOCTYPE svg PUBLIC "-//W3C//DTD SVG 20010904//EN"
 "http://www.w3.org/TR/2001/REC-SVG-20010904/DTD/svg10.dtd">
<svg version="1.0" xmlns="http://www.w3.org/2000/svg"
 width="16.000000pt" height="16.000000pt" viewBox="0 0 16.000000 16.000000"
 preserveAspectRatio="xMidYMid meet">
<metadata>
Created by potrace 1.11, written by Peter Selinger 2001-2013
</metadata>
<g transform="translate(0.000000,16.000000) scale(0.005333,-0.005333)"
fill="#000000" stroke="none">
<path d="M982 2332 c-63 -84 -135 -224 -158 -312 -36 -138 -23 -324 31 -446
54 -121 176 -265 287 -336 31 -20 51 -24 28 -5 -22 17 -63 84 -89 141 -39 90
-51 154 -47 266 5 158 59 293 163 409 l41 47 -34 68 c-31 61 -70 117 -146 209
l-23 28 -53 -69z"/>
<path d="M1939 2380 c-49 -53 -125 -162 -153 -220 l-32 -66 48 -54 c94 -105
159 -279 159 -424 0 -126 -61 -298 -131 -373 -45 -49 -14 -32 80 42 263 209
347 532 220 839 -30 71 -105 194 -152 247 -22 25 -24 26 -39 9z"/>
<path d="M1442 2244 c-80 -53 -211 -193 -271 -288 -141 -226 -148 -409 -24
-623 59 -102 248 -360 274 -374 11 -5 50 -9 87 -7 l67 3 73 95 c256 334 317
487 273 680 -42 183 -220 418 -401 533 -25 16 -28 15 -78 -19z"/>
<path d="M370 2015 c0 -327 179 -563 501 -664 122 -38 119 -38 68 11 -112 110
-181 294 -173 466 3 50 1 53 -46 95 -75 68 -240 160 -322 181 l-28 6 0 -95z"/>
<path d="M2570 2098 c-110 -49 -176 -85 -236 -127 -103 -73 -109 -81 -110
-165 -2 -177 -55 -318 -164 -436 -22 -24 -39 -45 -37 -46 7 -7 163 47 227 80
238 118 373 335 372 596 0 118 -1 120 -52 98z"/>
<path d="M237 1817 c-8 -24 1 -214 13 -257 16 -60 72 -113 136 -129 55 -14 78
-17 184 -26 41 -3 89 -8 105 -10 l30 -5 -25 18 c-127 89 -176 133 -286 257
-119 134 -152 166 -157 152z"/>
<path d="M2679 1756 c-37 -39 -82 -89 -100 -111 -74 -88 -188 -188 -276 -241
-20 -12 -29 -12 132 0 258 21 315 73 320 291 3 143 1 145 -76 61z"/>
<path d="M135 1507 c7 -83 15 -125 41 -214 68 -234 219 -405 420 -472 81 -27
115 -33 207 -36 152 -4 309 35 484 122 l93 46 -37 46 c-70 88 -181 190 -258
236 -153 93 -256 118 -535 131 -181 7 -268 40 -362 134 l-57 57 4 -50z"/>
<path d="M2807 1505 c-80 -92 -178 -129 -369 -140 -179 -10 -234 -16 -315 -36
-132 -33 -253 -104 -373 -220 -65 -63 -130 -139 -130 -151 0 -15 221 -116 300
-137 98 -27 130 -32 220 -36 390 -17 675 268 714 713 3 34 5 62 3 62 -1 0 -23
-25 -50 -55z"/>
<path d="M1394 921 c-10 -2 -30 -11 -44 -21 -31 -22 -103 -53 -194 -83 l-69
-23 84 -62 c199 -146 341 -173 506 -97 73 34 223 137 223 153 0 4 -26 16 -57
25 -32 10 -101 39 -153 64 -91 44 -99 46 -186 47 -50 1 -99 -1 -110 -3z"/>
</g>
</svg>
