<?xml version="1.0" encoding="utf-8"?>
<!-- Generator: Adobe Illustrator 19.0.0, SVG Export Plug-In . SVG Version: 6.00 Build 0)  -->
<svg version="1.1" id="Слой_1" xmlns="http://www.w3.org/2000/svg" xmlns:xlink="http://www.w3.org/1999/xlink" x="0px" y="0px"
	 viewBox="0 0 50 50" style="enable-background:new 0 0 50 50;" xml:space="preserve">
<style type="text/css">
	.st0{fill:#594F86;}
</style>
<g id="z2BPci.tif">
	<g id="XMLID_10_">
		<path id="XMLID_75_" class="st0" d="M21.2,49.7c-1-0.3-1.7-0.9-2-1.9c0-0.2-0.1-0.4-0.1-0.6c0-9.2,0-18.4,0-27.6
			c0-0.2,0-0.3,0-0.7c-0.2,0.3-0.3,0.4-0.4,0.6c-1.6,3.1-3.2,6.2-4.8,9.3c-0.8,1.5-2.7,1.8-3.8,0.6c-0.6-0.6-0.8-1.7-0.4-2.5
			c1.6-3.4,3.3-6.8,4.9-10.2c0.6-1.2,1.3-2.4,2.3-3.3c1-0.9,2.2-1.5,3.5-1.5c2.8,0,5.5-0.1,8.3,0c1.7,0,3.1,0.8,4.2,2.2
			c1.3,1.7,2.2,3.7,3.1,5.6c1.1,2.3,2.2,4.6,3.4,6.9c0.5,1,0.2,2.3-0.6,2.9c-0.9,0.7-2.1,0.6-3-0.1c-0.2-0.2-0.4-0.5-0.5-0.7
			c-1.6-3.2-3.3-6.3-4.9-9.5c0-0.1-0.1-0.2-0.2-0.2c0,0.2,0,0.4,0,0.5c0,9.2,0,18.4,0,27.5c0,1-0.7,2.2-1.9,2.5c0,0-0.1,0.1-0.1,0.1
			c-0.4,0-0.7,0-1.1,0c0,0-0.1-0.1-0.1-0.1c-1.2-0.4-1.8-1.2-1.8-2.5c0-4.6,0-9.2,0-13.8c0-0.2,0-0.4,0-0.6c-0.4,0-0.8,0-1.2,0
			c0,0.3,0,0.6,0,0.9c0,4.6,0,9.2,0,13.8c0,0.4-0.2,0.8-0.4,1.2c-0.3,0.7-1,0.9-1.6,1.1C21.8,49.7,21.5,49.7,21.2,49.7z M23.6,26.3
			c0.7,0,1.4,0,2.1,0c0-0.7,0-1.3,0.1-2c0.2-1.3,1-2.2,1.8-3.2c0.7-0.9,1.3-1.8,1.8-2.8c0.8-1.8,0.2-3.8-1.2-4.9
			c-0.7-0.5-1.5-0.8-2.4-0.8c-1.7-0.1-3.2,0.2-4.7,1.1c0.2,0.6,0.4,1.2,0.7,1.7c1-0.6,2.1-0.9,3.3-0.8c1.3,0.1,2.1,1,2.2,2.3
			c0,0.8-0.2,1.5-0.7,2.1c-0.5,0.7-1,1.3-1.5,2C23.8,22.6,23.2,24.3,23.6,26.3z M26.2,30.2c0-1-0.7-1.7-1.6-1.7
			c-0.9,0-1.7,0.8-1.7,1.8c0,1,0.7,1.7,1.6,1.7C25.5,32,26.2,31.2,26.2,30.2z"/>
		<path id="XMLID_66_" class="st0" d="M25.5,0c0.7,0.3,1.5,0.5,2.1,0.9c1.7,1,2.5,2.5,2.6,4.5c0.1,2.8-1.9,5.2-4.7,5.7
			c-1.9,0.3-3.5-0.3-4.9-1.7c-1.2-1.3-1.7-2.8-1.5-4.5c0.3-2.4,2.2-4.4,4.5-4.8c0.1,0,0.1-0.1,0.2-0.1C24.5,0,25,0,25.5,0z"/>
	</g>
</g>
</svg>
