<?xml version="1.0" encoding="utf-8"?>
<!-- Generator: Adobe Illustrator 19.0.0, SVG Export Plug-In . SVG Version: 6.00 Build 0)  -->
<svg version="1.1" id="Слой_1" xmlns="http://www.w3.org/2000/svg" xmlns:xlink="http://www.w3.org/1999/xlink" x="0px" y="0px"
	 viewBox="0 0 50 50" style="enable-background:new 0 0 50 50;" xml:space="preserve">
<style type="text/css">
	.st0{fill:#594F86;}
</style>
<g id="MlyY3H.tif">
	<g id="XMLID_12_">
		<path id="XMLID_124_" class="st0" d="M27.2,50c-0.6-0.2-1.1-0.4-1.7-0.6c-2-0.7-3.1-2.2-4.1-4c-1.3-2.4-1.8-4.9-1.9-7.6
			c-0.1-3.3,0.5-6.5,1.5-9.5c1.1-3.2,2.4-6.3,3.7-9.4c0.5-1.3,1.4-1.7,2.7-1.3c4.2,1.1,8.4,2.3,12.2,4.6c3.1,1.9,6.1,4,9.2,6
			c0.3,0.2,0.5,0.5,0.7,0.7c0,0.4,0,0.8,0,1.2c-0.3,0.5-0.6,1-0.9,1.5c-1.2,2-2.2,4.1-3.5,6.1c-2.1,3.2-4.4,6.2-7.4,8.5
			c-1.6,1.3-3.3,2.4-5.3,3c-0.7,0.2-1.4,0.4-2.1,0.6C29.3,50,28.3,50,27.2,50z M35.9,41.5c-2.5,0.2-4.9,0.3-7.2-0.7
			c-2.4-1-3.5-3.3-5-5.2c0,0.7,0,1.3,0.1,1.9c0.2,1.7,0.4,3.4,1.5,4.7c1,1.3,2.2,2.1,3.9,2.1c1.9,0,3.4-0.8,5-1.7
			C34.8,42.3,35.4,41.9,35.9,41.5z M41.6,36.6c-1.3-3.5-4.5-4.4-7.1-3.5C35.8,36.1,38.3,37.4,41.6,36.6z M24.7,28.3
			c1.4,3.4,4.9,4.4,7,3.3C30.4,28.3,27.2,27.3,24.7,28.3z"/>
		<path id="XMLID_120_" class="st0" d="M25,0c0.9,0.6,1.2,1.6,1.5,2.6c0.7,3.2,1.5,6.3,2.2,9.5c0.2,1,0.3,2.1,0.5,3.2
			c-0.7-0.2-1.4-0.4-2.1-0.6c-2-0.4-3.6,0.9-4.3,2.4c-0.5,1-1,2.1-1.4,3.1c-0.3,0.6-0.5,0.8-1.3,0.7c-1.5-0.2-2.9,0.3-4.1,1.4
			c-1.7,1.6-2.5,3.6-2.8,6.1c1.9-2.1,3.7-4,6.5-4.6c-0.5,1.6-1.1,3.2-1.5,4.8c-0.3,1-0.5,2-0.7,3.1c-0.1,0.5-0.2,0.8-0.9,0.6
			c-2.3-0.8-4.3-2.1-6.1-3.7c-3-2.6-5.1-5.9-6.8-9.4c-1.3-2.6-2.3-5.3-3.4-8c-0.1-0.2-0.2-0.4-0.3-0.6c0-0.5,0-1,0-1.5
			c0.3-0.3,0.5-0.6,0.8-0.8c2.8-1.8,5.7-3.5,8.9-4.8c3.3-1.3,6.7-2.1,10.2-2.7c1-0.2,2-0.4,3-0.6C23.6,0,24.3,0,25,0z M14,14.1
			c-4.5-0.5-6.1,2.3-6.4,4.8C10.5,19.4,13.4,18,14,14.1z M17.8,12.3c2.3,2.5,5.5,2.3,7.9-0.2C22.8,9.6,19.8,10.1,17.8,12.3z"/>
	</g>
</g>
</svg>
