<?xml version="1.0" encoding="utf-8"?>
<!-- Generator: Adobe Illustrator 19.0.0, SVG Export Plug-In . SVG Version: 6.00 Build 0)  -->
<svg version="1.1" id="Слой_1" xmlns="http://www.w3.org/2000/svg" xmlns:xlink="http://www.w3.org/1999/xlink" x="0px" y="0px"
	 viewBox="0 0 50 50" style="enable-background:new 0 0 50 50;" xml:space="preserve">
<style type="text/css">
	.st0{fill:#594F86;}
</style>
<g id="BvNxZ5.tif">
	<g id="XMLID_9_">
		<path id="XMLID_89_" class="st0" d="M3.4,22c0-0.4,0-0.8,0-1.2c0-0.1,0.1-0.2,0.1-0.3c0.1-1.3,0.1-2.6,0.2-3.8
			c0.1-1,0.3-1.9,0.5-2.9c0-0.1,0.2-0.3,0.3-0.3c0.6-0.2,1.3-0.3,2-0.4c-0.6-0.3-1.1-0.5-1.7-0.8c-0.2-0.1-0.3-0.2-0.2-0.5
			C5,10.6,5.3,9.5,5.7,8.3C6,7.6,6.3,6.8,6.6,6.1C8,6.7,9.4,7.4,10.8,8C9.7,7.1,8.5,6.2,7.4,5.4C7.1,5.2,7.1,5.1,7.2,4.9
			C8.1,3.1,9.1,1.5,10.3,0c0.1,0,0.1,0,0.2,0c0.1,0,0.1,0.1,0.2,0.1c1.6,0.6,3.2,1.2,4.8,1.7c1.9,0.6,3.9,1,5.8,1.2
			c1.2,0.1,2.4,0.3,3.6,0.3c1.8,0,3.6-0.1,5.4-0.2C31.5,3,32.8,2.9,34,2.6c2-0.4,4-0.9,6-1.4c0.7-0.2,0.5-0.2,0.9,0.3
			c0.8,1.2,1.5,2.4,2.2,3.7c-1.3,0.4-2.5,0.9-3.8,1.3c0.1,0,0.1,0,0.1,0C40.6,6.4,41.8,6.2,43,6c0.3,0,0.4,0,0.5,0.3
			c0,0.1,0.1,0.2,0.1,0.3c1,2.1,1.6,4.3,2.1,6.7c-0.5,0.2-1.1,0.5-1.6,0.7c0,0,0,0,0,0.1c0.6,0,1.1,0,1.7,0c0,0.1,0.1,0.2,0.1,0.3
			c0.1,0.8,0.2,1.5,0.3,2.3c0.1,1.4,0.3,2.7,0.3,4.1c0,1.7-0.1,3.4-0.3,5c-0.1,1-0.3,2-0.4,3c0,0.2-0.1,0.3-0.3,0.2
			c-2.3-0.6-4.6-1.2-6.9-1.8c-0.6-0.2-1.2-0.3-1.8-0.5c0,0,0,0,0,0.1c2.9,1.1,5.9,2.3,8.8,3.4c-0.7,3.1-1.9,6-3.4,8.7
			c-2.2-0.9-4.4-1.8-6.5-2.7c0,0,0,0.1,0,0.1c2,1.2,4,2.4,6,3.7c-0.2,0.3-0.4,0.6-0.6,0.9c-1.2,1.8-2.7,3.5-4.3,4.9
			c-1.5,1.3-3.1,2.3-4.9,3.1c-1.8,0.8-3.6,1.3-5.5,1.4c-1.1,0.1-2.3,0-3.4-0.1c-1.8-0.2-3.6-0.8-5.2-1.6C15,47,12.8,45.2,11,43
			c-0.4-0.4-0.7-0.9-1-1.3c-0.1-0.2-0.1-0.3,0-0.5c0.8-0.9,1.6-1.8,2.4-2.7c0.4-0.4,0.8-0.9,1.1-1.3c0,0,0,0-0.1,0
			c-1.3,1.2-2.7,2.5-4,3.8C6.7,37.1,5,32.8,4.1,28.2c2.2-1,4.5-2,6.7-3c0,0,0,0,0-0.1c-2.3,0.7-4.5,1.4-6.8,2.1
			c0-0.4-0.1-0.8-0.1-1.1c-0.1-1.2-0.2-2.5-0.3-3.7C3.5,22.3,3.5,22.1,3.4,22z M25.2,45.2c0.9-0.1,1.8-0.1,2.7-0.2
			c1.1-0.2,2.2-0.4,3.3-0.7c1.3-0.4,2.5-0.9,3.3-2c0.6-0.8,0.7-1.6,0.2-2.5c-0.5-0.7-1.2-1.2-1.9-1.6c-1.8-0.9-3.7-1.3-5.6-1.4
			c-1.2-0.1-2.4-0.1-3.5,0c-1.2,0.1-2.4,0.3-3.6,0.5c-1.4,0.3-2.7,0.8-3.8,1.8c-1.1,1-1.3,2.2-0.2,3.3c0.8,0.8,1.8,1.3,2.9,1.7
			C21,44.9,23.1,45.2,25.2,45.2z M15.3,20.9c0.8-0.1,1.6-0.2,2.4-0.4c1.6-0.4,3-1.2,3.9-2.6c1.2-1.7,1.2-3.7,0-5.4
			c-1.4-1.9-3.4-2.7-5.7-2.8c-0.8-0.1-1.6,0-2.3,0.1c-1.5,0.2-2.8,0.8-3.9,1.8c-0.9,0.8-1.6,1.9-1.7,3.1c-0.2,1.8,0.7,3.2,2,4.2
			C11.6,20.3,13.4,20.8,15.3,20.9z M35.1,9.6c-0.4,0-0.9,0.1-1.3,0.1c-1.8,0.2-3.4,1-4.7,2.3c-1,1.1-1.4,2.4-1.2,3.8
			c0.2,1.3,1,2.4,2,3.2c1.9,1.4,4,1.9,6.3,1.6c1.6-0.2,3-0.7,4.2-1.8c1.2-1.1,2-2.4,1.8-4.2c-0.2-1.5-0.9-2.6-2.1-3.4
			C38.7,10.1,37,9.6,35.1,9.6z M30.1,33.9c-1.7-4.4-3.4-8.7-5.1-13.2c-1.6,4.4-3.1,8.8-4.7,13.2C23.6,33.9,26.8,33.9,30.1,33.9z"/>
	</g>
</g>
</svg>
