<?xml version="1.0" encoding="utf-8"?>
<!-- Generator: Adobe Illustrator 19.0.0, SVG Export Plug-In . SVG Version: 6.00 Build 0)  -->
<svg version="1.1" id="Слой_1" xmlns="http://www.w3.org/2000/svg" xmlns:xlink="http://www.w3.org/1999/xlink" x="0px" y="0px"
	 viewBox="0 0 50 50" style="enable-background:new 0 0 50 50;" xml:space="preserve">
<style type="text/css">
	.st0{fill:#594F86;}
</style>
<g id="b3F5A6.tif">
	<g id="XMLID_3_">
		<path id="XMLID_50_" class="st0" d="M49.8,25.1C50,38.9,38.4,50.3,24.2,50C11,49.7,0,38.5,0,24.9C0,11.1,11.5-0.3,25.7,0
			C38.9,0.3,49.9,11.5,49.8,25.1z M24.9,46.2c11.8,0,21.3-9.5,21.3-21.3c0-11.7-9.6-21.1-21.3-21.1c-11.9,0-21.3,9.5-21.3,21.3
			C3.7,36.8,13.2,46.2,24.9,46.2z"/>
		<path id="XMLID_44_" class="st0" d="M25.1,30.8c-3.3,0.1-6.1,1.6-7.8,4.7c-0.4,0.8-0.9,1.7-2,1.2c-1.2-0.6-0.9-1.5-0.4-2.4
			c2.2-4.3,6-6.2,10.6-6.2c4.6,0,8.2,2.1,10.4,6.3c0.5,0.9,0.7,1.7-0.4,2.3c-1.1,0.6-1.6-0.2-2-1C31.8,32.4,29,30.8,25.1,30.8z"/>
		<path id="XMLID_43_" class="st0" d="M15.7,18.2c0-1.6,1.4-2.9,2.9-2.9c1.4,0,2.8,1.5,2.8,2.9c0,1.5-1.4,2.9-3,2.8
			C16.9,21,15.7,19.8,15.7,18.2z"/>
		<path id="XMLID_42_" class="st0" d="M29,18.2c0-1.6,1.3-2.8,2.8-2.8c1.5,0,2.8,1.3,2.8,2.9c0,1.7-1.2,2.9-2.9,2.8
			C30,21,29,19.9,29,18.2z"/>
	</g>
</g>
</svg>
