<?xml version="1.0" encoding="utf-8"?>
<!-- Generator: Adobe Illustrator 19.0.0, SVG Export Plug-In . SVG Version: 6.00 Build 0)  -->
<svg version="1.1" id="Слой_1" xmlns="http://www.w3.org/2000/svg" xmlns:xlink="http://www.w3.org/1999/xlink" x="0px" y="0px"
	 viewBox="0 0 50 50" style="enable-background:new 0 0 50 50;" xml:space="preserve">
<style type="text/css">
	.st0{fill:#594F86;}
</style>
<g id="goNeci.tif">
	<g id="XMLID_11_">
		<path id="XMLID_102_" class="st0" d="M40.6,35.1c-10.4,0-20.8,0-31.3,0c0-0.2,0-0.4,0-0.6c0-6.3,0-12.7,0-19c0-3.3,1.1-6.4,3-9.1
			c2.4-3.2,5.5-5.2,9.4-6c4.5-0.9,8.7,0,12.5,2.7c3.3,2.4,5.3,5.7,6.1,9.8c0.1,0.8,0.2,1.5,0.2,2.3c0,6.4,0,12.8,0,19.3
			C40.6,34.6,40.6,34.8,40.6,35.1z M24.9,29.3c2.4,0,4.8,0,7.2,0c1.1,0,1.8-0.7,1.8-1.6c0-0.9-0.8-1.7-1.8-1.7c-4.8,0-9.6,0-14.4,0
			c-0.4,0-0.8,0.1-1.1,0.3c-0.7,0.5-0.9,1.1-0.6,1.9c0.2,0.7,0.9,1.1,1.7,1.1C20.2,29.3,22.6,29.3,24.9,29.3z M25.1,18.6
			c-2.5,0-4.9,0-7.4,0c-0.7,0-1.3,0.4-1.6,1c-0.2,0.6-0.1,1.4,0.5,1.8c0.4,0.3,0.9,0.4,1.4,0.5c1.7,0.1,3.3,0,5,0c3.1,0,6.1,0,9.2,0
			c1.1,0,1.9-0.8,1.9-1.7c0-1-0.9-1.7-1.9-1.6C29.8,18.7,27.4,18.6,25.1,18.6z M21.8,11.3c0,1.4,0.4,2.6,1.4,3.6
			c1,0.9,2.6,0.9,3.6,0c1.9-1.7,1.9-5.5,0-7.2c-1-0.9-2.6-0.9-3.6,0C22.2,8.6,21.8,9.9,21.8,11.3z"/>
		<path id="XMLID_101_" class="st0" d="M25,50c-7.1,0-14.1,0-21.2,0c-0.9,0-1.2-0.3-1.2-1.2c0-3.7,0-7.4,0-11.1
			c0-0.8,0.3-1.2,1.2-1.2c14.2,0,28.3,0,42.5,0c0.8,0,1.1,0.3,1.1,1.2c0,3.7,0,7.4,0,11.1c0,0.8-0.3,1.1-1.1,1.1
			C39.2,50,32.1,50,25,50z"/>
	</g>
</g>
</svg>
