<?xml version="1.0" encoding="utf-8"?>
<!-- Generator: Adobe Illustrator 19.0.0, SVG Export Plug-In . SVG Version: 6.00 Build 0)  -->
<svg version="1.1" id="Слой_1" xmlns="http://www.w3.org/2000/svg" xmlns:xlink="http://www.w3.org/1999/xlink" x="0px" y="0px"
	 viewBox="0 0 50 50" style="enable-background:new 0 0 50 50;" xml:space="preserve">
<style type="text/css">
	.st0{fill:#594F86;}
</style>
<g id="ZeOCBW.tif">
	<g id="XMLID_2_">
		<path id="XMLID_35_" class="st0" d="M20.3,0c0.1,0,0.1,0,0.2,0c0.1,0,0.2,0.1,0.2,0.1c4.1,0.7,8.3,1.5,12.4,2.2
			c2.8,0.5,5.5,1,8.3,1.6c0,14.1,0,28.1,0,42.2c-0.1,0.1-0.2,0.1-0.4,0.2c-4.8,0.9-9.7,1.7-14.5,2.6c-2,0.4-4,0.8-6.1,1.2
			c-0.1,0-0.1,0-0.2,0c0-1.2,0-2.4,0-3.7c-4.1,0-7.9,0-11.7,0c0-14.2,0-28.4,0-42.6c3.8,0,7.7,0,11.7,0C20.3,2.4,20.3,1.2,20.3,0z
			 M20.2,7.1c-2.7,0-5.4,0-8.1,0c0,11.9,0,23.8,0,35.8c2.4,0,4.7,0,7,0c0.9,0,1.2-0.3,1.2-1.2c0-11.2,0-22.4,0-33.6
			C20.3,7.8,20.2,7.5,20.2,7.1z M22.5,25c0,0.9,0.5,1.7,1.2,1.7c0.7,0,1.3-0.8,1.3-1.7c0-0.9-0.6-1.7-1.3-1.6
			C23,23.3,22.5,24.1,22.5,25z"/>
	</g>
</g>
</svg>
