<?xml version="1.0" encoding="utf-8"?>
<!-- Generator: Adobe Illustrator 19.0.0, SVG Export Plug-In . SVG Version: 6.00 Build 0)  -->
<svg version="1.1" id="Слой_1" xmlns="http://www.w3.org/2000/svg" xmlns:xlink="http://www.w3.org/1999/xlink" x="0px" y="0px"
	 viewBox="0 0 50 50" style="enable-background:new 0 0 50 50;" xml:space="preserve">
<style type="text/css">
	.st0{fill:#594F86;}
</style>
<g id="wgg7hb.tif">
	<g id="XMLID_1_">
		<path id="XMLID_71_" class="st0" d="M4.4,44.4c0-12.9,0-25.8,0-38.8c0-0.3,0.1-0.6,0.1-0.9c0.1-0.7,0.3-1.3,0.6-1.9
			c0.5-0.9,1.2-1.6,2.2-2.1c0.6-0.3,1.2-0.5,1.8-0.6C9.3,0.1,9.5,0,9.8,0c3.1,0,6.1,0,9.2,0c0,1.4,0,2.8,0,4.2c4.2,0,8.3,0,12.5,0
			c0-1.4,0-2.8,0-4.2c3.1,0,6.1,0,9.2,0c0.1,0,0.1,0,0.2,0c0.2,0,0.5,0,0.7,0.1c1,0.2,1.9,0.6,2.7,1.3c1,0.9,1.6,2.1,1.8,3.5
			c0,0.2,0,0.5,0.1,0.7c0,12.9,0,25.8,0,38.8c0,0.3-0.1,0.6-0.1,0.9c-0.1,0.7-0.3,1.3-0.6,1.9c-0.5,0.9-1.2,1.6-2.2,2.1
			c-0.6,0.3-1.2,0.5-1.8,0.6c-0.2,0-0.5,0.1-0.7,0.1c-10.3,0-20.6,0-30.9,0c-0.1,0-0.1,0-0.2,0c-0.2,0-0.5,0-0.7-0.1
			c-1-0.2-1.9-0.6-2.7-1.3c-1-0.9-1.6-2.1-1.8-3.5C4.4,44.8,4.4,44.6,4.4,44.4z M39.8,8.3c-9.7,0-19.4,0-29.2,0
			c0,11.8,0,23.6,0,35.4c9.7,0,19.4,0,29.2,0C39.8,31.9,39.8,20.1,39.8,8.3z"/>
		<path id="XMLID_57_" class="st0" d="M18.9,16.7c0-1.4,0-2.8,0-4.2c1.4,0,2.8,0,4.2,0c0,1.4,0,2.8,0,4.2c1.4,0,2.8,0,4.2,0
			c0,1.4,0,2.8,0,4.2c-1.4,0-2.8,0-4.2,0c0,1.4,0,2.8,0,4.2c-1.4,0-2.8,0-4.2,0c0-1.4,0-2.8,0-4.2c-1.4,0-2.8,0-4.2,0
			c0-1.4,0-2.8,0-4.2C16.2,16.7,17.6,16.7,18.9,16.7z"/>
		<path id="XMLID_56_" class="st0" d="M14.8,33.3c0-0.7,0-1.4,0-2.1c7.6,0,15.3,0,22.9,0c0,0.7,0,1.4,0,2.1
			C30.1,33.3,22.4,33.3,14.8,33.3z"/>
		<path id="XMLID_55_" class="st0" d="M37.7,37.5c0,0.7,0,1.4,0,2.1c-7.6,0-15.3,0-22.9,0c0-0.7,0-1.4,0-2.1
			C22.4,37.5,30.1,37.5,37.7,37.5z"/>
		<path id="XMLID_54_" class="st0" d="M37.7,12.5c0,0.7,0,1.4,0,2.1c-2.8,0-5.5,0-8.3,0c0-0.7,0-1.4,0-2.1
			C32.2,12.5,34.9,12.5,37.7,12.5z"/>
		<path id="XMLID_53_" class="st0" d="M29.4,20.8c0-0.7,0-1.4,0-2.1c2.8,0,5.5,0,8.3,0c0,0.7,0,1.4,0,2.1
			C34.9,20.8,32.2,20.8,29.4,20.8z"/>
		<path id="XMLID_52_" class="st0" d="M29.4,25c2.8,0,5.5,0,8.3,0c0,0.7,0,1.4,0,2.1c-2.8,0-5.5,0-8.3,0
			C29.4,26.4,29.4,25.7,29.4,25z"/>
	</g>
</g>
</svg>
