<?xml version="1.0" encoding="utf-8"?>
<!-- Generator: Adobe Illustrator 19.0.0, SVG Export Plug-In . SVG Version: 6.00 Build 0)  -->
<svg version="1.1" id="Слой_1" xmlns="http://www.w3.org/2000/svg" xmlns:xlink="http://www.w3.org/1999/xlink" x="0px" y="0px"
	 viewBox="0 0 50 50" style="enable-background:new 0 0 50 50;" xml:space="preserve">
<style type="text/css">
	.st0{fill:#594F86;}
</style>
<g id="wMkyRy.tif">
	<g id="XMLID_14_">
		<path id="XMLID_142_" class="st0" d="M34.8,0.1c1.9,0.4,3.2,2,4.4,3.4c2.6,2.9,1,7.3-1.9,9c-0.8,0.5-0.9,0.8-0.8,1.7
			c0.3,2.1-0.1,4.1-0.9,6.1c-0.1,0.2-0.1,0.4-0.2,0.6c1.5,0.8,2.9,1.6,4.4,2.3c2.1,1.1,4.1,2.2,6.2,3.3c2.1,1.1,2.7,2.8,1.8,4.7
			c-0.7,1.4-2,2-3.6,1.4c-2.5-0.9-4.9-1.9-7.3-2.8c-0.1-0.1-0.3-0.1-0.6-0.2c0.1,1.1,0.2,2.1,0.3,3c-1.9,0.2-3.7,0.5-5.6,0.7
			c-1-2.9-3.4-4.3-6.6-4c-2.6,0.2-4.4,1.6-5.1,4c-1.9-0.2-3.7-0.5-5.6-0.7c0.1-0.8,0.2-1.9,0.3-3c-2.1,0.9-4.1,1.7-6.1,2.5
			c-1.1,0.5-2.3,1-3.6,0.6c-2.1-0.6-3-3.5-1.4-5c0.9-0.9,2.1-1.5,3.2-2.1c2.8-1.5,5.6-2.9,8.3-4.4c0.1-0.1,0.3-0.2,0.4-0.3
			c-0.9-2-1.5-4.1-1.2-6.2c0.2-1.2-0.2-1.7-1.2-2.4c-2.8-1.9-4.2-6.6-0.7-9.5c1.1-1,2.2-2,3.7-2.5C16,0,16.9,0,17.6,0.1
			c2.1,0.3,3.8,1.7,4.8,3.7c0.1,0.2,0.5,0.3,0.7,0.3c1.1,0,2.3-0.2,3.4,0c0.8,0.1,1.1-0.1,1.4-0.7c0.1-0.2,0.2-0.4,0.4-0.6
			c1-1.5,2.5-2.4,4.1-2.7C33.3,0,34.1,0,34.8,0.1z M31.9,17.8c0.3-3.3-2.8-7-6.9-6.9c-4.1,0-6.9,3.7-6.8,6.9
			c0.1,3.9,3.1,6.9,6.9,6.9C28.9,24.7,31.9,21.6,31.9,17.8z M15,9.2c1.2-1.1,2.4-2.2,3.5-3.3c0.2-0.2,0.3-0.5,0.2-0.7
			c-0.7-1.3-2.4-1.5-3.4-0.5C15,5,14.6,5.3,14.3,5.6C13,6.9,13.4,8.6,15,9.2z M35.1,9.2c1.6-0.6,2-2.3,0.7-3.7
			c-0.3-0.3-0.7-0.6-1-0.9c-1-0.9-2.7-0.6-3.4,0.6c-0.1,0.2,0,0.6,0.2,0.7C32.7,7,33.9,8.1,35.1,9.2z"/>
		<path id="XMLID_140_" class="st0" d="M33.2,50c-2.4,0-5.4-2-6-5.4c-0.5-2.9,0.2-5.6,2.3-7.7c1.7-1.7,3.8-2.4,6.1-1.8
			c2.5,0.7,3.8,2.5,4.4,4.9c0.9,3.5-0.6,7.2-3.5,9C35.6,49.6,34.2,50,33.2,50z"/>
		<path id="XMLID_139_" class="st0" d="M16.8,50c-3,0.2-6-2.5-6.8-6c-0.6-2.7-0.2-5.3,1.9-7.4c2-2,5-2.3,7.4-0.7
			c2.3,1.5,3.5,3.7,3.7,6.4c0.2,2.4-0.4,4.5-2.2,6.2C19.6,49.5,18.4,50.1,16.8,50z"/>
		<path id="XMLID_133_" class="st0" d="M22.1,16.1c0-1.7,1.3-3,2.9-2.9c1.6,0,2.9,1.3,2.9,2.9c0,1.6-1.3,3-2.9,3
			C23.4,19,22.1,17.7,22.1,16.1z"/>
	</g>
</g>
</svg>
