<?xml version="1.0" encoding="utf-8"?>
<!-- Generator: Adobe Illustrator 19.0.0, SVG Export Plug-In . SVG Version: 6.00 Build 0)  -->
<svg version="1.1" id="Слой_1" xmlns="http://www.w3.org/2000/svg" xmlns:xlink="http://www.w3.org/1999/xlink" x="0px" y="0px"
	 viewBox="0 0 50 50" style="enable-background:new 0 0 50 50;" xml:space="preserve">
<style type="text/css">
	.st0{fill:#594F86;}
</style>
<g id="XMLID_17_">
	<polygon id="XMLID_22_" class="st0" points="6.4,32.6 3.6,49 26.1,49 23.2,32.6 	"/>
	<path id="XMLID_23_" class="st0" d="M38.9,8.8c-2.9,0-2.6,4.8-4.7,8.6c-2.2,3.9-3.1,1.8-4.8-1s-0.2-6.2-2.6-6.2S25,12.9,25,12.9
		s0.5,4.2,2.7,7.3s3.6,2.8,5.8,2c2.2-0.7,4.9-6.2,5.4-7.2C39.4,14,41.8,8.7,38.9,8.8z"/>
	<path id="XMLID_24_" class="st0" d="M38.5,0c-3.6,0-6.5,2.9-6.5,6.5c0,2.3,1.3,4.4,3.1,5.5c0.7-2.2,1.4-4.1,3.7-4.1l0.1,0
		c1.1,0,1.6,0.6,1.9,0.9c0.6,0.9,0.5,2.3,0,3.7c2.4-0.9,4.2-3.3,4.2-6C45,2.9,42.1,0,38.5,0z"/>
	<path id="XMLID_25_" class="st0" d="M34.3,27.2c0,0-0.5-2.9-3.5-2.9h-9.3c-0.4,0-0.7-0.5-0.5-0.9c0.4-0.9,1.4-2.4,3.1-3.9
		c0.4-0.4,1-0.8,1.6-1.4c-1.1-2.5-1.4-4.8-1.5-5.2c-0.1-0.3-0.3-1.7,0.5-2.7c0.3-0.4,1-0.9,2.2-0.9c2.2,0,2.4,1.9,2.5,3.4
		c0,0.4,0.1,0.8,0.2,1.3c1.4-2.2,1.9-4.7,0-7.2c-4-5.4-13.3,3.8-14.7,5.3s-6.7,7.7-7.3,10.1c-0.3,1.1-0.5,2.5-0.2,4
		c0.4,2.5,2.6,4.3,5.1,4.3H27c0.6,0,1.2,0.4,1.3,1l3.3,16c0.3,1.6,1.9,2.7,3.5,2.5c0,0,0.1,0,0.1,0c1.4-0.2,2-1.3,2.3-2.2
		c0.2-0.7,0.2-1.3,0.1-2L34.3,27.2z"/>
</g>
</svg>
