<?xml version="1.0" encoding="utf-8"?>
<!-- Generator: Adobe Illustrator 19.0.0, SVG Export Plug-In . SVG Version: 6.00 Build 0)  -->
<svg version="1.1" id="Слой_1" xmlns="http://www.w3.org/2000/svg" xmlns:xlink="http://www.w3.org/1999/xlink" x="0px" y="0px"
	 viewBox="0 0 50 50" style="enable-background:new 0 0 50 50;" xml:space="preserve">
<style type="text/css">
	.st0{fill:#594F86;}
</style>
<g id="abr6aa.tif">
	<g id="XMLID_15_">
		<path id="XMLID_49_" class="st0" d="M2.2,42c0-0.1-0.1-0.2-0.1-0.4c-0.1-0.4,0-0.8,0.3-1.1c0.3-0.3,0.7-0.4,1.1-0.1
			c0.6,0.4,1.1,0.8,1.7,1.2c0.4,0.3,0.8,0.6,1.2,0.9C7.5,41,8.6,39.5,9.7,38c-0.1-0.1-0.3-0.2-0.4-0.3c-2.4-1.7-4.8-3.5-7.1-5.3
			c-0.4-0.3-0.7-0.6-0.7-1.1c0.1-0.8,0.8-1.2,1.5-0.8c0.1,0.1,0.3,0.2,0.4,0.3c1.8,1.3,3.6,2.6,5.4,4C9,34.9,9.1,35,9.3,35.1
			c5.8-7.9,11.6-15.8,17.5-23.8c0.6,0.5,1.2,0.9,1.8,1.3c0.3,0.2,0.4,0.2,0.6-0.1c0.3-0.5,0.7-1,1.1-1.5c0.4-0.6,0.8-0.8,1.5-0.6
			c0.3,0.1,0.5,0,0.7-0.3c2.2-3,4.5-6.1,6.7-9.1c0.4-0.6,0.8-0.9,1.5-0.8c0.2,0.1,0.3,0.2,0.5,0.4c0.3,0.7,0.1,1.2-0.3,1.7
			c-2.3,3-4.5,6.1-6.7,9.1c-0.2,0.3-0.3,0.5-0.1,0.8c0.3,0.5,0.3,1-0.1,1.4c-0.4,0.5-0.7,1-1.1,1.5c-0.2,0.3-0.2,0.4,0.1,0.6
			c0.6,0.4,1.1,0.8,1.7,1.3C28.8,25.1,23,33,17.2,40.9c0.2,0.1,0.3,0.2,0.5,0.3c1.8,1.3,3.7,2.7,5.5,4c0.4,0.3,0.7,0.6,0.6,1.1
			c-0.1,0.7-0.8,1.1-1.4,0.8c-0.2-0.1-0.4-0.2-0.6-0.3c-2.3-1.7-4.7-3.4-7-5.2c-0.3-0.2-0.5-0.3-0.8,0.1c-0.9,1.2-1.8,2.4-2.7,3.6
			c-0.2,0.3-0.2,0.5,0.1,0.7c0.7,0.5,1.5,1,2.2,1.6c0.7,0.6,0.8,1.5,0,1.9c-0.3,0.1-0.6,0.1-1,0.1C9.2,47.1,5.7,44.6,2.2,42z
			 M15.2,30.5c-1.3,1.8-2.7,3.7-4,5.5c-0.2,0.3-0.2,0.5,0.1,0.7c1.3,0.9,2.6,1.9,3.9,2.9c0.3,0.2,0.5,0.2,0.7-0.1
			c2.6-3.6,5.3-7.2,8-10.8c0.2-0.3,0.2-0.5-0.1-0.7c-1.3-0.9-2.6-1.9-3.8-2.8c-0.4-0.3-0.5-0.2-0.8,0.1
			C17.8,26.9,16.5,28.7,15.2,30.5z"/>
	</g>
</g>
</svg>
