<?xml version="1.0" encoding="utf-8"?>
<!-- Generator: Adobe Illustrator 19.0.0, SVG Export Plug-In . SVG Version: 6.00 Build 0)  -->
<svg version="1.1" id="Слой_1" xmlns="http://www.w3.org/2000/svg" xmlns:xlink="http://www.w3.org/1999/xlink" x="0px" y="0px"
	 viewBox="0 0 50 50" style="enable-background:new 0 0 50 50;" xml:space="preserve">
<style type="text/css">
	.st0{fill:#594F86;}
</style>
<g id="yHwEZj.tif">
	<g id="XMLID_6_">
		<path id="XMLID_67_" class="st0" d="M27.2,0c3.5,0,7,0,10.4,0c0,3.5,0,6.9,0,10.4c-0.1,0-0.1,0.1-0.2,0.1c-1-1-2-2-2.9-3
			c-1.3,1.3-2.6,2.6-3.9,3.9c0.7,1.3,1.1,2.6,1.3,4.1c0,0.4,0.3,0.4,0.6,0.6c3.8,1.6,6.2,4.4,7.2,8.4c0.2,0.9,0.3,1.8,0.4,2.6
			c0,0.1,0,0.2,0,0.3C40,27.9,40,28.4,39.9,29c-0.4,2.9-1.7,5.2-3.8,7.2c-1.3,1.2-2.9,2.1-4.6,2.6c-0.1,0-0.3,0.2-0.3,0.2
			c0,0.7,0,1.4,0,2.1c1.1,0,2.1,0,3.2,0c0,1.9,0,3.8,0,5.7c-1.1,0-2.1,0-3.2,0c0,1.1,0,2.2,0,3.2c-1.9,0-3.8,0-5.7,0
			c0-1.1,0-2.1,0-3.2c-1.1,0-2.2,0-3.2,0c0-1.9,0-3.8,0-5.6c0.5,0,0.9,0,1.4,0c0.5,0,0.9,0,1.4,0c0.3,0,0.4-0.1,0.4-0.4
			c0-0.4,0-0.8,0-1.2c0-0.4-0.1-0.5-0.5-0.6c-4.7-1.3-7.6-4.3-8.8-9c-0.1-0.4-0.2-0.5-0.6-0.6c-4.5-1.5-7.4-4.6-8.5-9.2
			c-0.2-0.9-0.3-1.8-0.4-2.7c0-0.1,0-0.3,0-0.4c0.1-0.9,0.2-1.8,0.4-2.7c1.2-5.1,5.5-9.1,11-9.7c2.9-0.3,5.7,0.4,8.2,2
			c0.3,0.2,0.4,0.1,0.6-0.1c1-1,2.1-2.1,3.1-3.1c0.1-0.1,0.1-0.2,0.3-0.4c-0.2-0.1-0.4-0.2-0.5-0.3C28.9,1.8,28.1,0.9,27.2,0z
			 M16,25.4c0.9-5.7,5.8-10.3,11.9-10.3c0.1-2.9-4.1-6.5-7.9-6.8c-4.6-0.3-8.9,3-9.5,8C10.1,20.3,12.6,24.2,16,25.4z M31.8,19.7
			c-1.7,6.1-5.6,9.5-11.9,10.2c0.9,3,4.1,6.2,8.9,5.7c3.7-0.3,7.2-3.3,7.6-7.8C36.7,24.5,34.8,21,31.8,19.7z M28.1,18.8
			C24,18.5,19.9,22,19.6,26C23.1,26.2,27.3,23.4,28.1,18.8z"/>
	</g>
</g>
</svg>
