<?xml version="1.0" encoding="utf-8"?>
<!-- Generator: Adobe Illustrator 19.0.0, SVG Export Plug-In . SVG Version: 6.00 Build 0)  -->
<svg version="1.1" id="Слой_1" xmlns="http://www.w3.org/2000/svg" xmlns:xlink="http://www.w3.org/1999/xlink" x="0px" y="0px"
	 viewBox="0 0 50 50" style="enable-background:new 0 0 50 50;" xml:space="preserve">
<style type="text/css">
	.st0{fill:#594F86;}
</style>
<g id="ye5BUc.tif">
	<g id="XMLID_4_">
		<path id="XMLID_34_" class="st0" d="M20.4,21.7c-1.5-1.5-3-3-4.5-4.5c3.8-3.8,7.5-7.5,11.2-11.2c1.4,1.4,2.9,2.9,4.5,4.5
			c0.2-0.3,0.4-0.5,0.6-0.7c1.1-1.1,2.3-1.1,3.3,0c0.2,0.2,0.4,0.4,0.6,0.6c0.8,0.8,0.8,2,0,2.9c-0.3,0.3-0.5,0.5-0.8,0.8
			c1.8,1.8,3.5,3.5,5.3,5.3c-3.8,3.8-7.5,7.5-11.3,11.3c-1.7-1.7-3.5-3.5-5.3-5.3c-0.1,0.1-0.1,0.2-0.2,0.3
			C18.3,31.3,12.6,36.9,7,42.5c-0.8,0.8-1.9,1-2.8,0.4c-0.5-0.4-1-0.9-1.4-1.4c-0.6-0.8-0.5-1.9,0.2-2.6c0.1-0.1,0.2-0.2,0.3-0.3
			C9,33.1,14.6,27.5,20.2,21.9C20.2,21.8,20.3,21.8,20.4,21.7z"/>
		<path id="XMLID_33_" class="st0" d="M43.4,46.7c0.5,0,1.1,0,1.6,0.1c0.4,0.1,0.8,0.3,1.1,0.5c0.7,0.5,0.7,1.4,0,2
			c-0.4,0.4-1,0.6-1.6,0.6c-0.1,0-0.3,0-0.4,0c-9.4,0-18.8,0-28.2,0c-0.6,0-1.2-0.1-1.7-0.5c-0.8-0.6-0.8-1.6,0-2.2
			c0.4-0.3,1-0.5,1.5-0.5c0.3,0,0.7,0,1.1,0c0-0.4,0-0.8,0-1.2c0-0.9,0.6-1.6,1.4-1.9c0.2-0.1,0.5-0.1,0.8-0.1c7.4,0,14.8,0,22.2,0
			c1.2,0,2.1,0.9,2.2,2.2C43.4,46.1,43.4,46.4,43.4,46.7z"/>
		<path id="XMLID_32_" class="st0" d="M27,2.4c0,0.4-0.3,0.9-0.7,1.4c-3.3,3.3-6.6,6.5-9.8,9.8c-0.9,0.9-1.9,1.9-2.8,2.8
			c-1.1,1-2.7,0.8-3.4-0.5c-0.4-0.8-0.3-1.8,0.4-2.5c0.9-0.9,1.9-1.9,2.8-2.8C16.8,7.3,20,4,23.3,0.7c0.9-0.9,2.1-1,3-0.2
			C26.8,0.9,27,1.5,27,2.4z"/>
		<path id="XMLID_31_" class="st0" d="M46.6,21.6c0,0.6-0.2,1.1-0.5,1.5c-0.1,0.1-0.1,0.2-0.2,0.2c-4.2,4.2-8.3,8.3-12.5,12.5
			c-0.8,0.8-1.8,1-2.7,0.5c-1.1-0.6-1.4-2.1-0.7-3.1c0.1-0.1,0.2-0.3,0.3-0.4c4.2-4.2,8.4-8.4,12.6-12.6c0.6-0.6,1.3-0.9,2.2-0.6
			c0.8,0.2,1.3,0.8,1.5,1.6C46.5,21.4,46.5,21.5,46.6,21.6z"/>
	</g>
</g>
</svg>
