<?xml version="1.0" encoding="utf-8"?>
<!-- Generator: Adobe Illustrator 19.0.0, SVG Export Plug-In . SVG Version: 6.00 Build 0)  -->
<svg version="1.1" id="Слой_1" xmlns="http://www.w3.org/2000/svg" xmlns:xlink="http://www.w3.org/1999/xlink" x="0px" y="0px"
	 viewBox="0 0 50 50" style="enable-background:new 0 0 50 50;" xml:space="preserve">
<style type="text/css">
	.st0{fill:#594F86;}
</style>
<g id="DAk8rv.tif">
	<g id="XMLID_5_">
		<path id="XMLID_30_" class="st0" d="M37.1,28.8c-0.1,0.2-0.4,0.4-0.4,0.6c0,1.1,0,2.3,0,3.4c0,4.8,0,9.6,0,14.4
			c0,1.8-1.4,2.9-3.1,2.4c-0.9-0.3-1.3-0.9-1.5-1.8c-0.1-0.5-0.1-0.9-0.1-1.4c0-9.9,0-19.9,0-29.8c0-0.4,0-0.7-0.1-1.1
			c-0.1,0-0.2,0-0.2-0.1c-0.1,0.2-0.3,0.5-0.4,0.7c-1.1,3.3-2.2,6.6-3.3,10c-0.5,1.6-1.3,2-2.8,1.3c-0.1-0.1-0.3-0.1-0.5-0.1
			c-1.5,0.2-1.9,0-2.4-1.5c-0.7-2.1-1.3-4.2-1.9-6.4c-0.3-1-0.6-2.1-0.9-3.1c-0.2-0.8-0.2-0.8-1.2-0.7c1.8,6.1,3.5,12.2,5.3,18.4
			c-1.7,0-3.3,0-5,0c0,0.4,0,0.7,0,1c0,4.3,0,8.5,0,12.8c0,1-0.5,1.6-1.4,1.8c-0.8,0.2-1.7-0.1-2-0.9c-0.2-0.5-0.2-1-0.2-1.5
			c0-4,0-8,0-12c0-0.3,0-0.7,0-1.1c-0.4,0-0.7,0-1.1,0c0,0.3,0,0.6,0,0.9c0,4.3,0,8.5,0,12.8c0,1-0.5,1.6-1.4,1.8
			c-0.8,0.2-1.7-0.1-2-0.8c-0.2-0.4-0.2-0.8-0.2-1.3c0-4.1,0-8.3,0-12.4c0-0.3,0-0.6,0-1c-1.7,0-3.2,0-4.9,0
			c1.8-6.2,3.5-12.3,5.2-18.4c-0.6-0.2-0.9-0.1-1,0.5c-0.9,3.1-1.8,6.3-2.7,9.4c-0.1,0.3-0.2,0.6-0.4,0.9c-0.4,0.7-1.2,1.1-1.9,0.8
			c-0.7-0.3-1.2-1.1-1-1.9c0.7-2.4,1.4-4.8,2.1-7.2C6,16.8,6.4,15.4,6.9,14c0.7-2.1,2.2-3.6,4.5-3.7c2-0.1,4-0.2,6-0.1
			c2.6,0.2,4.2,1.8,4.9,4.2c1,3.1,1.9,6.2,2.9,9.5c0.2-0.5,0.3-0.8,0.4-1.1c1.2-3.5,2.3-7,3.5-10.5c0.6-1.8,1.8-2.9,3.8-3
			c3,0,5.9,0,8.9,0.1c2.3,0,4.7,2.2,4.7,5.3c0.1,4.1,0,8.2,0,12.2c0,0.8-0.2,1.6-1,1.8c-0.6,0.1-1.4,0.1-1.8-0.2
			c-0.4-0.4-0.7-1.2-0.7-1.9c-0.1-3.4,0-6.7,0-10.1c0-0.3,0-0.6,0-0.9c-0.3,0-0.5,0-0.9,0c0,0.4,0,0.7,0,1c0,10.2,0,20.4,0,30.5
			c0,1.4-0.5,2.2-1.5,2.5c-1.8,0.6-3.3-0.6-3.3-2.5c0-5.7,0-11.4,0-17.2c0-0.3,0-0.6,0-1C37.3,29,37.2,28.9,37.1,28.8z"/>
		<path id="XMLID_29_" class="st0" d="M37.1,0c2.3,0,4,1.7,4,4.1c0,2.2-1.8,4-4,4C34.9,8.1,33,6.1,33,4C33.1,1.7,34.9,0,37.1,0z"/>
		<path id="XMLID_28_" class="st0" d="M14.5,1.1c2.1,0,4,1.8,4,3.9c0,2.1-1.8,4-4,4c-2.1,0-3.9-1.8-3.9-3.9
			C10.6,2.9,12.4,1.1,14.5,1.1z"/>
	</g>
</g>
</svg>
