<?xml version="1.0" encoding="utf-8"?>
<!-- Generator: Adobe Illustrator 19.0.0, SVG Export Plug-In . SVG Version: 6.00 Build 0)  -->
<svg version="1.1" id="Слой_1" xmlns="http://www.w3.org/2000/svg" xmlns:xlink="http://www.w3.org/1999/xlink" x="0px" y="0px"
	 viewBox="0 0 50 50" style="enable-background:new 0 0 50 50;" xml:space="preserve">
<style type="text/css">
	.st0{fill:#594F86;}
</style>
<g id="sNHo9q.tif">
	<g id="XMLID_8_">
		<path id="XMLID_83_" class="st0" d="M0,47.9c0.7-1.3,1.5-2.6,2.2-3.9c0.6-1.1,1.2-2.2,1.8-3.3c0.2-0.3,0.3-0.4,0.7-0.4
			c1.9,0,3.7,0,5.6,0c11.6,0,23.3,0,34.9,0c0.5,0,0.8,0.2,1,0.6c1.3,2.4,2.6,4.8,3.8,7.1c-16.5,0-33,0-49.5,0
			C0.3,48,0.2,47.9,0,47.9z M46.8,46c-0.6-1.1-1.2-2.2-1.7-3.3c-0.2-0.4-0.4-0.5-0.9-0.5c-12.7,0-25.5,0-38.2,0c-0.1,0-0.3,0-0.4,0
			c-0.1,0-0.2,0.1-0.3,0.2c-0.7,1.2-1.3,2.4-2,3.6C17.8,46,32.2,46,46.8,46z"/>
		<path id="XMLID_82_" class="st0" d="M36.4,22.9c-7.6,0-15.2,0-22.8,0c3.8-7,7.6-14,11.4-21.1C28.8,8.9,32.6,15.9,36.4,22.9z"/>
		<path id="XMLID_79_" class="st0" d="M44.8,38.4c-13.2,0-26.4,0-39.6,0c0.7-1.4,1.5-2.7,2.2-4c1.6-3,3.2-5.9,4.8-8.9
			c0.2-0.4,0.4-0.5,0.9-0.5c7.9,0,15.9,0,23.8,0c0.5,0,0.7,0.2,0.9,0.6c1.8,3.4,3.6,6.7,5.4,10.1C43.8,36.5,44.3,37.4,44.8,38.4z
			 M41.5,36.4c-0.1-0.2-0.2-0.4-0.2-0.6c-1.5-2.8-3.1-5.6-4.6-8.5c-0.2-0.3-0.3-0.6-0.8-0.6c-7.3,0-14.6,0-21.8,0
			c-0.3,0-0.5,0.1-0.7,0.4c-1.3,2.4-2.6,4.8-3.9,7.2c-0.4,0.6-0.7,1.3-1,2C19.5,36.4,30.5,36.4,41.5,36.4z"/>
	</g>
</g>
</svg>
